<svg width="60" height="49" viewBox="0 0 60 49" fill="none" xmlns="http://www.w3.org/2000/svg">
<path d="M39.3327 38.2806H21.9993C16.106 38.2806 11.3327 33.5073 11.3327 27.6139C11.3245 25.1447 12.1775 22.75 13.7448 20.8419C15.3121 18.9339 17.4956 17.6321 19.9193 17.1606C21.003 15.4681 22.4931 14.0739 24.2538 13.105C26.0145 12.1362 27.9897 11.6235 29.9993 11.6139C35.1993 11.6139 39.7593 15.0273 41.3593 19.8539C45.5727 20.8139 48.666 24.5206 48.666 28.9473C48.666 34.0939 44.4793 38.2806 39.3327 38.2806ZM21.306 22.3339C18.6393 22.6806 16.666 24.9206 16.666 27.6139C16.666 30.5473 19.066 32.9473 21.9993 32.9473H39.3327C41.546 32.9473 43.3327 31.1606 43.3327 28.9473C43.3327 26.7339 41.546 24.9473 39.3327 24.9473H37.0127L36.5593 22.6539C36.3317 21.0742 35.5441 19.6289 34.3399 18.5814C33.1358 17.5339 31.5953 16.954 29.9993 16.9473C27.4393 16.9473 25.0927 18.4673 23.9727 20.8139L23.2527 22.3339H21.306ZM53.9993 0.947266H5.99935C3.06602 0.947266 0.666016 3.34727 0.666016 6.2806V43.6139C0.666016 46.5473 3.06602 48.9473 5.99935 48.9473H53.9993C56.9327 48.9473 59.3327 46.5473 59.3327 43.6139V6.2806C59.3327 3.34727 56.9327 0.947266 53.9993 0.947266ZM53.9993 43.6406H5.99935V6.25393H53.9993V43.6406Z" fill="white"/>
</svg>
