<svg width="54" height="48" viewBox="0 0 54 48" fill="none" xmlns="http://www.w3.org/2000/svg">
<path d="M50.6667 24.5867C50.6667 9.94667 39.3067 0 26.6667 0C14.16 0 2.66667 9.73333 2.66667 24.7467C1.06667 25.6533 0 27.36 0 29.3333V34.6667C0 37.6 2.4 40 5.33333 40H8V23.7333C8 13.4133 16.3467 5.06667 26.6667 5.06667C36.9867 5.06667 45.3333 13.4133 45.3333 23.7333V42.6667H24V48H45.3333C48.2667 48 50.6667 45.6 50.6667 42.6667V39.4133C52.24 38.5867 53.3333 36.96 53.3333 35.04V28.9067C53.3333 27.04 52.24 25.4133 50.6667 24.5867Z" fill="white"/>
<path d="M18.6667 29.3333C20.1394 29.3333 21.3333 28.1394 21.3333 26.6667C21.3333 25.1939 20.1394 24 18.6667 24C17.1939 24 16 25.1939 16 26.6667C16 28.1394 17.1939 29.3333 18.6667 29.3333Z" fill="white"/>
<path d="M34.6667 29.3333C36.1394 29.3333 37.3333 28.1394 37.3333 26.6667C37.3333 25.1939 36.1394 24 34.6667 24C33.1939 24 32 25.1939 32 26.6667C32 28.1394 33.1939 29.3333 34.6667 29.3333Z" fill="white"/>
<path d="M42.6653 21.4133C42.0294 17.6644 40.0877 14.2612 37.1838 11.8063C34.2799 9.35146 30.6011 8.00312 26.7986 8C18.7186 8 10.0253 14.6933 10.7186 25.2C14.007 23.8544 16.9113 21.716 19.1726 18.9754C21.4339 16.2349 22.9819 12.9774 23.6786 9.49333C27.1719 16.5067 34.3453 21.3333 42.6653 21.4133Z" fill="white"/>
</svg>
