<svg width="54" height="46" viewBox="0 0 54 46" fill="none" xmlns="http://www.w3.org/2000/svg">
<path d="M5.66732 37.9472V36.2139C5.66732 35.3072 6.09398 34.4539 6.76065 34.0539C11.2673 31.3606 16.414 29.9472 21.6673 29.9472C21.7473 29.9472 21.8007 29.9472 21.8807 29.9739C22.1473 28.1072 22.6807 26.3206 23.454 24.6939C22.8673 24.6406 22.2807 24.6139 21.6673 24.6139C15.214 24.6139 9.18732 26.4006 4.04065 29.4672C1.69398 30.8539 0.333984 33.4672 0.333984 36.2139V43.2806H25.0273C23.9073 41.6806 23.0273 39.8672 22.4407 37.9472H5.66732ZM21.6673 21.9472C27.5607 21.9472 32.334 17.1739 32.334 11.2806C32.334 5.38722 27.5607 0.613892 21.6673 0.613892C15.774 0.613892 11.0007 5.38722 11.0007 11.2806C11.0007 17.1739 15.774 21.9472 21.6673 21.9472ZM21.6673 5.94722C24.6007 5.94722 27.0007 8.34722 27.0007 11.2806C27.0007 14.2139 24.6007 16.6139 21.6673 16.6139C18.734 16.6139 16.334 14.2139 16.334 11.2806C16.334 8.34722 18.734 5.94722 21.6673 5.94722ZM50.334 32.6139C50.334 32.0272 50.254 31.4939 50.174 30.9339L53.214 28.2406L50.5473 23.6272L46.6806 24.9339C45.8273 24.2139 44.8673 23.6539 43.8007 23.2539L43.0007 19.2806H37.6673L36.8673 23.2539C35.8007 23.6539 34.8407 24.2139 33.9873 24.9339L30.1207 23.6272L27.454 28.2406L30.494 30.9339C30.414 31.4939 30.334 32.0272 30.334 32.6139C30.334 33.2006 30.414 33.7339 30.494 34.2939L27.454 36.9872L30.1207 41.6006L33.9873 40.2939C34.8407 41.0139 35.8007 41.5739 36.8673 41.9739L37.6673 45.9472H43.0007L43.8007 41.9739C44.8673 41.5739 45.8273 41.0139 46.6806 40.2939L50.5473 41.6006L53.214 36.9872L50.174 34.2939C50.254 33.7339 50.334 33.2006 50.334 32.6139ZM40.334 37.9472C37.4007 37.9472 35.0007 35.5472 35.0007 32.6139C35.0007 29.6806 37.4007 27.2806 40.334 27.2806C43.2673 27.2806 45.6673 29.6806 45.6673 32.6139C45.6673 35.5472 43.2673 37.9472 40.334 37.9472Z" fill="white"/>
</svg>
