<svg width="20" height="21" viewBox="0 0 20 21" fill="none" xmlns="http://www.w3.org/2000/svg">
<path d="M10.0013 2.61389C5.4013 2.61389 1.66797 6.34723 1.66797 10.9472C1.66797 15.5472 5.4013 19.2806 10.0013 19.2806C14.6013 19.2806 18.3346 15.5472 18.3346 10.9472C18.3346 6.34723 14.6013 2.61389 10.0013 2.61389ZM7.74297 14.5222L4.7513 11.5306C4.67415 11.4534 4.61295 11.3618 4.5712 11.261C4.52944 11.1602 4.50795 11.0522 4.50795 10.9431C4.50795 10.834 4.52944 10.7259 4.5712 10.6251C4.61295 10.5243 4.67415 10.4327 4.7513 10.3556C4.82845 10.2784 4.92005 10.2172 5.02085 10.1755C5.12165 10.1337 5.22969 10.1122 5.3388 10.1122C5.44791 10.1122 5.55595 10.1337 5.65675 10.1755C5.75756 10.2172 5.84915 10.2784 5.9263 10.3556L8.33464 12.7556L14.068 7.02222C14.2238 6.86641 14.4351 6.77887 14.6555 6.77887C14.8758 6.77887 15.0872 6.86641 15.243 7.02222C15.3988 7.17804 15.4863 7.38937 15.4863 7.60972C15.4863 7.83008 15.3988 8.04141 15.243 8.19723L8.91797 14.5222C8.84087 14.5995 8.7493 14.6608 8.64849 14.7026C8.54768 14.7444 8.43961 14.7659 8.33047 14.7659C8.22133 14.7659 8.11326 14.7444 8.01245 14.7026C7.91164 14.6608 7.82006 14.5995 7.74297 14.5222Z" fill="white"/>
</svg>
