<svg width="24" height="25" viewBox="0 0 24 25" fill="none" xmlns="http://www.w3.org/2000/svg">
<g clip-path="url(#clip0)">
<path d="M12.0005 1.42725C5.63807 1.42725 0.480469 6.58485 0.480469 12.9472C0.480469 19.3096 5.63807 24.4672 12.0005 24.4672C18.3629 24.4672 23.5205 19.3096 23.5205 12.9472C23.5205 6.58485 18.3629 1.42725 12.0005 1.42725ZM14.7293 9.38805H12.9977C12.7925 9.38805 12.5645 9.65805 12.5645 10.0168V11.2672H14.7305L14.4029 13.0504H12.5645V18.4036H10.5209V13.0504H8.66687V11.2672H10.5209V10.2184C10.5209 8.71365 11.5649 7.49085 12.9977 7.49085H14.7293V9.38805Z" fill="#8292A6"/>
</g>
<defs>
<clipPath id="clip0">
<rect width="24" height="24" fill="white" transform="translate(0 0.947266)"/>
</clipPath>
</defs>
</svg>
