<svg width="20" height="21" viewBox="0 0 20 21" fill="none" xmlns="http://www.w3.org/2000/svg">
<path d="M13.125 10.9473C13.125 11.7761 12.7958 12.5709 12.2097 13.157C11.6237 13.743 10.8288 14.0723 10 14.0723C9.1712 14.0723 8.37634 13.743 7.79029 13.157C7.20424 12.5709 6.875 11.7761 6.875 10.9473C6.875 10.7691 6.89375 10.5952 6.92604 10.4264H5.83333V14.59C5.83333 14.8796 6.06771 15.1139 6.35729 15.1139H13.6438C13.7825 15.1137 13.9155 15.0583 14.0136 14.9601C14.1116 14.8619 14.1667 14.7288 14.1667 14.59V10.4264H13.074C13.1062 10.5952 13.125 10.7691 13.125 10.9473ZM10 13.0306C10.2737 13.0305 10.5446 12.9766 10.7974 12.8718C11.0502 12.767 11.2799 12.6134 11.4734 12.4199C11.6668 12.2263 11.8202 11.9966 11.9249 11.7437C12.0296 11.4909 12.0834 11.2199 12.0833 10.9462C12.0833 10.6726 12.0293 10.4016 11.9245 10.1488C11.8197 9.89601 11.6662 9.66632 11.4726 9.47287C11.2791 9.27941 11.0493 9.12598 10.7965 9.02131C10.5436 8.91665 10.2726 8.86282 9.99896 8.86289C9.44629 8.86303 8.9163 9.08271 8.5256 9.47361C8.1349 9.8645 7.91549 10.3946 7.91562 10.9473C7.91576 11.4999 8.13544 12.0299 8.52634 12.4206C8.91724 12.8113 9.44733 13.0307 10 13.0306ZM12.5 8.75977H13.749C13.8319 8.75977 13.9115 8.72687 13.9703 8.6683C14.0291 8.60972 14.0622 8.53024 14.0625 8.44727V7.19831C14.0625 7.11515 14.0295 7.0354 13.9707 6.9766C13.9119 6.9178 13.8321 6.88477 13.749 6.88477H12.5C12.4168 6.88477 12.3371 6.9178 12.2783 6.9766C12.2195 7.0354 12.1865 7.11515 12.1865 7.19831V8.44727C12.1875 8.61914 12.3281 8.75977 12.5 8.75977ZM10 0.947266C7.34784 0.947266 4.8043 2.00083 2.92893 3.8762C1.05357 5.75156 0 8.2951 0 10.9473C0 13.5994 1.05357 16.143 2.92893 18.0183C4.8043 19.8937 7.34784 20.9473 10 20.9473C11.3132 20.9473 12.6136 20.6886 13.8268 20.1861C15.0401 19.6835 16.1425 18.9469 17.0711 18.0183C17.9997 17.0897 18.7362 15.9874 19.2388 14.7741C19.7413 13.5608 20 12.2605 20 10.9473C20 9.63405 19.7413 8.33369 19.2388 7.12043C18.7362 5.90718 17.9997 4.80478 17.0711 3.8762C16.1425 2.94761 15.0401 2.21102 13.8268 1.70847C12.6136 1.20592 11.3132 0.947266 10 0.947266ZM15.2083 14.9983C15.2083 15.6348 14.6875 16.1556 14.051 16.1556H5.94896C5.3125 16.1556 4.79167 15.6348 4.79167 14.9983V6.89622C4.79167 6.25977 5.3125 5.73893 5.94896 5.73893H14.051C14.6875 5.73893 15.2083 6.25977 15.2083 6.89622V14.9983Z" fill="#8292A6"/>
</svg>
