<svg width="20" height="21" viewBox="0 0 20 21" fill="none" xmlns="http://www.w3.org/2000/svg">
<path d="M10 0.947266C4.47708 0.947266 0 5.42435 0 10.9473C0 16.4702 4.47708 20.9473 10 20.9473C15.5229 20.9473 20 16.4702 20 10.9473C20 5.42435 15.5229 0.947266 10 0.947266ZM14.0677 9.13893C14.0719 9.22435 14.0729 9.30977 14.0729 9.3931C14.0729 11.9973 12.0927 14.9983 8.46979 14.9983C7.39926 15.0001 6.35101 14.6926 5.45104 14.1129C5.60417 14.1316 5.76146 14.1389 5.92083 14.1389C6.84375 14.1389 7.69271 13.8254 8.36667 13.2962C7.95596 13.2882 7.55799 13.1522 7.22824 12.9072C6.89849 12.6622 6.65338 12.3204 6.52708 11.9296C6.82204 11.9856 7.12589 11.9739 7.41562 11.8952C6.96984 11.805 6.56896 11.5635 6.28095 11.2115C5.99294 10.8595 5.83553 10.4187 5.83542 9.96393V9.93997C6.10104 10.0868 6.40521 10.1764 6.72813 10.1868C6.31021 9.90865 6.01436 9.4813 5.90109 8.9922C5.78782 8.50309 5.86568 7.98919 6.11875 7.5556C6.61349 8.16393 7.23048 8.66159 7.92976 9.01634C8.62904 9.37109 9.39502 9.57504 10.1781 9.61497C10.0786 9.19238 10.1214 8.74873 10.3 8.353C10.4786 7.95727 10.7829 7.63163 11.1657 7.42671C11.5485 7.22178 11.9882 7.14906 12.4166 7.21984C12.8449 7.29062 13.2379 7.50094 13.5344 7.8181C13.9752 7.73089 14.3979 7.5692 14.7844 7.33997C14.6375 7.79636 14.3299 8.18391 13.9187 8.4306C14.3092 8.38357 14.6905 8.2786 15.05 8.11914C14.7859 8.51486 14.4533 8.86022 14.0677 9.13893Z" fill="#8292A6"/>
</svg>
