<svg width="20" height="21" viewBox="0 0 20 21" fill="none" xmlns="http://www.w3.org/2000/svg">
<path d="M10 0.947266C4.47708 0.947266 0 5.42435 0 10.9473C0 16.4702 4.47708 20.9473 10 20.9473C15.5229 20.9473 20 16.4702 20 10.9473C20 5.42435 15.5229 0.947266 10 0.947266ZM7.55208 15.0921H5.52708V8.57539H7.55208V15.0921ZM6.52708 7.77539C5.8875 7.77539 5.47396 7.32227 5.47396 6.76185C5.47396 6.18997 5.9 5.75039 6.55312 5.75039C7.20625 5.75039 7.60625 6.18997 7.61875 6.76185C7.61875 7.32227 7.20625 7.77539 6.52708 7.77539ZM14.9479 15.0921H12.9229V11.4806C12.9229 10.64 12.6292 10.0691 11.8969 10.0691C11.3375 10.0691 11.0052 10.4556 10.8583 10.8275C10.8042 10.9598 10.7906 11.1473 10.7906 11.3337V15.091H8.76458V10.6535C8.76458 9.83997 8.73854 9.15977 8.71146 8.57435H10.4708L10.5635 9.47956H10.6042C10.8708 9.05456 11.524 8.42747 12.6167 8.42747C13.949 8.42747 14.9479 9.32018 14.9479 11.2389V15.0921Z" fill="#8292A6"/>
</svg>
