<svg width="20" height="21" viewBox="0 0 20 21" fill="none" xmlns="http://www.w3.org/2000/svg">
<path d="M11.6698 10.7733L9.33021 9.68164C9.12604 9.58685 8.95833 9.6931 8.95833 9.91914V11.9754C8.95833 12.2014 9.12604 12.3077 9.33021 12.2129L11.6687 11.1212C11.874 11.0254 11.874 10.8691 11.6698 10.7733ZM10 0.947266C4.47708 0.947266 0 5.42435 0 10.9473C0 16.4702 4.47708 20.9473 10 20.9473C15.5229 20.9473 20 16.4702 20 10.9473C20 5.42435 15.5229 0.947266 10 0.947266ZM10 15.0098C4.88125 15.0098 4.79167 14.5483 4.79167 10.9473C4.79167 7.34622 4.88125 6.88477 10 6.88477C15.1187 6.88477 15.2083 7.34622 15.2083 10.9473C15.2083 14.5483 15.1187 15.0098 10 15.0098Z" fill="#8292A6"/>
</svg>
