<svg width="24" height="24" viewBox="0 0 24 24" fill="none" xmlns="http://www.w3.org/2000/svg">
<path d="M12.0005 0.427246C5.63807 0.427246 0.480469 5.58485 0.480469 11.9472C0.480469 18.3096 5.63807 23.4672 12.0005 23.4672C18.3629 23.4672 23.5205 18.3096 23.5205 11.9472C23.5205 5.58485 18.3629 0.427246 12.0005 0.427246ZM12.7889 14.6772C12.0497 14.6208 11.7401 14.2548 11.1617 13.9044C10.8437 15.5736 10.4549 17.1744 9.30287 18.0108C8.94647 15.486 9.82367 13.5924 10.2317 11.58C9.53687 10.41 10.3145 8.05685 11.7809 8.63525C13.5845 9.35045 10.2185 12.9852 12.4781 13.44C14.8373 13.9128 15.8009 9.34565 14.3381 7.86245C12.2237 5.71805 8.18567 7.81325 8.68247 10.8828C8.80247 11.6328 9.57887 11.8608 8.99207 12.8964C7.63967 12.5964 7.23527 11.5296 7.28807 10.1076C7.37087 7.77965 9.37967 6.14885 11.3933 5.92445C13.9409 5.64125 16.3313 6.85925 16.6625 9.25685C17.0333 11.9616 15.5117 14.8884 12.7889 14.6772Z" fill="#8292A6"/>
</svg>
